<?xml version="1.0" encoding="UTF-8"?><svg xmlns="http://www.w3.org/2000/svg" viewBox="0 0 293.3 73.95"><g id="a"><path d="M5.89,32.9h10.39c2.7,0,5.02.25,6.96.75,1.93.5,3.69,1.44,5.26,2.82,4.1,3.51,6.15,8.84,6.15,16.01,0,2.36-.21,4.52-.62,6.47-.41,1.95-1.05,3.71-1.91,5.28-.86,1.57-1.96,2.97-3.3,4.2-1.06.95-2.21,1.71-3.46,2.28-1.25.57-2.6.98-4.04,1.21-1.44.23-3.07.35-4.87.35H6.05c-1.45,0-2.54-.22-3.28-.66-.73-.44-1.21-1.06-1.44-1.85-.22-.8-.34-1.83-.34-3.1v-28.87c0-1.72.38-2.96,1.15-3.73s2.01-1.15,3.73-1.15ZM8.98,39.21v26.72h6.04c1.32,0,2.36-.04,3.12-.11.75-.07,1.53-.25,2.34-.54.81-.29,1.5-.69,2.09-1.21,2.67-2.26,4-6.14,4-11.66,0-3.88-.59-6.79-1.76-8.73-1.17-1.93-2.62-3.16-4.34-3.69-1.72-.53-3.8-.79-6.23-.79h-5.26Z" style="fill:#549b35; stroke:#549b35; stroke-miterlimit:10; stroke-width:2px;"/><path d="M40.56,56v-18.93c0-1.61.36-2.82,1.09-3.63.72-.81,1.68-1.21,2.86-1.21s2.22.4,2.94,1.21c.72.81,1.09,2.01,1.09,3.63v19.36c0,2.2.25,4.04.74,5.52.49,1.48,1.36,2.62,2.62,3.44,1.25.81,3.01,1.22,5.26,1.22,3.12,0,5.32-.83,6.61-2.48,1.29-1.66,1.93-4.17,1.93-7.53v-19.52c0-1.63.36-2.84,1.07-3.64.72-.8,1.67-1.19,2.87-1.19s2.17.4,2.91,1.19c.74.8,1.11,2.01,1.11,3.64v18.93c0,3.08-.3,5.65-.9,7.71-.6,2.06-1.73,3.87-3.4,5.42-1.43,1.33-3.1,2.29-5,2.9-1.9.61-4.12.91-6.66.91-3.03,0-5.63-.33-7.81-.98-2.18-.65-3.97-1.67-5.34-3.04-1.38-1.37-2.39-3.12-3.03-5.26-.64-2.14-.97-4.69-.97-7.67Z" style="fill:#549b35; stroke:#549b35; stroke-miterlimit:10; stroke-width:2px;"/><path d="M106.7,39.48h-8.7v28.6c0,1.65-.37,2.87-1.1,3.67-.73.8-1.68,1.19-2.85,1.19s-2.14-.4-2.89-1.21c-.74-.81-1.11-2.02-1.11-3.65v-28.6h-8.7c-1.36,0-2.37-.3-3.03-.9-.66-.6-.99-1.39-.99-2.38s.34-1.83,1.03-2.42c.69-.59,1.69-.89,2.99-.89h25.35c1.38,0,2.4.3,3.08.91.67.61,1.01,1.41,1.01,2.39s-.34,1.78-1.02,2.38c-.68.6-1.7.9-3.06.9Z" style="fill:#549b35; stroke:#549b35; stroke-miterlimit:10; stroke-width:2px;"/><path d="M127.65,66.34l-6.31-25.08v27.18c0,1.5-.34,2.63-1.01,3.38-.67.75-1.56,1.13-2.67,1.13s-1.95-.37-2.63-1.11c-.68-.74-1.02-1.88-1.02-3.4v-31.15c0-1.72.45-2.88,1.34-3.48.9-.6,2.1-.9,3.63-.9h2.47c1.49,0,2.56.13,3.24.4.67.27,1.17.75,1.49,1.45s.69,1.84,1.1,3.41l5.72,21.56,5.72-21.56c.41-1.58.78-2.71,1.1-3.41s.82-1.18,1.49-1.45c.67-.27,1.75-.4,3.24-.4h2.47c1.52,0,2.73.3,3.63.9.9.6,1.34,1.76,1.34,3.48v31.15c0,1.5-.34,2.63-1.01,3.38-.67.75-1.57,1.13-2.7,1.13-1.06,0-1.92-.38-2.6-1.13-.68-.75-1.02-1.88-1.02-3.38v-27.18l-6.31,25.08c-.41,1.63-.75,2.82-1.01,3.59-.26.76-.74,1.45-1.44,2.08s-1.67.94-2.9.94c-.93,0-1.72-.2-2.36-.6-.64-.4-1.15-.92-1.5-1.54-.36-.63-.64-1.32-.85-2.08-.21-.76-.42-1.55-.63-2.38Z" style="fill:#549b35; stroke:#549b35; stroke-miterlimit:10; stroke-width:2px;"/><path d="M177.04,68.81c-1.77,1.38-3.49,2.41-5.14,3.1-1.66.69-3.51,1.03-5.57,1.03-1.88,0-3.53-.37-4.96-1.11-1.42-.74-2.52-1.75-3.29-3.02-.77-1.27-1.15-2.65-1.15-4.14,0-2,.64-3.71,1.91-5.13,1.27-1.41,3.02-2.36,5.24-2.85.47-.11,1.62-.35,3.46-.73,1.84-.38,3.42-.72,4.74-1.03,1.32-.31,2.74-.69,4.28-1.14-.09-1.93-.48-3.35-1.17-4.26-.69-.9-2.12-1.36-4.28-1.36-1.86,0-3.26.26-4.2.78-.94.52-1.75,1.3-2.42,2.34-.67,1.04-1.15,1.72-1.42,2.05-.28.33-.87.5-1.79.5-.82,0-1.54-.26-2.13-.79-.6-.53-.9-1.2-.9-2.03,0-1.29.46-2.54,1.37-3.76.91-1.22,2.34-2.22,4.27-3.01,1.93-.79,4.34-1.18,7.22-1.18,3.22,0,5.76.38,7.6,1.14,1.84.76,3.15,1.97,3.91,3.61.76,1.65,1.14,3.83,1.14,6.55,0,1.72,0,3.18-.01,4.38,0,1.2-.02,2.53-.04,4,0,1.38.23,2.82.69,4.31.46,1.49.68,2.46.68,2.89,0,.75-.35,1.44-1.06,2.05-.71.62-1.51.93-2.4.93-.75,0-1.5-.35-2.23-1.06-.73-.71-1.51-1.73-2.34-3.07ZM176.55,58.2c-1.07.39-2.64.81-4.69,1.25-2.05.44-3.47.76-4.26.97-.79.21-1.54.61-2.26,1.21-.72.6-1.07,1.44-1.07,2.51s.42,2.05,1.26,2.83c.84.78,1.94,1.17,3.3,1.17,1.45,0,2.79-.32,4.01-.95,1.23-.64,2.13-1.45,2.7-2.46.66-1.11.99-2.94.99-5.48v-1.05Z" style="fill:#549b35; stroke:#549b35; stroke-miterlimit:10; stroke-width:2px;"/><path d="M196.69,47.19v.89c1.29-1.7,2.7-2.95,4.23-3.75,1.53-.8,3.29-1.19,5.28-1.19s3.66.42,5.18,1.26c1.52.84,2.66,2.03,3.41,3.57.48.9.8,1.86.94,2.9.14,1.04.21,2.36.21,3.97v13.64c0,1.47-.34,2.58-1.01,3.33-.67.75-1.54,1.13-2.62,1.13s-1.98-.39-2.66-1.15c-.68-.77-1.02-1.87-1.02-3.3v-12.22c0-2.42-.34-4.27-1.01-5.55-.67-1.28-2.01-1.92-4.02-1.92-1.31,0-2.5.39-3.57,1.17-1.07.78-1.86,1.85-2.36,3.21-.36,1.09-.54,3.13-.54,6.12v9.18c0,1.49-.34,2.6-1.03,3.34-.69.74-1.58,1.11-2.67,1.11s-1.92-.39-2.6-1.15c-.68-.77-1.02-1.87-1.02-3.3v-21.19c0-1.4.3-2.44.91-3.13.61-.69,1.44-1.03,2.5-1.03.64,0,1.23.15,1.75.46.52.3.94.76,1.25,1.37.31.61.47,1.35.47,2.23Z" style="fill:#549b35; stroke:#549b35; stroke-miterlimit:10; stroke-width:2px;"/><path d="M240.42,68.81v-.94c-.88,1.11-1.8,2.04-2.77,2.79s-2.02,1.31-3.17,1.68c-1.15.37-2.45.55-3.92.55-1.77,0-3.36-.37-4.77-1.1-1.41-.73-2.49-1.75-3.26-3.03-.91-1.56-1.37-3.8-1.37-6.71v-14.53c0-1.47.33-2.56.99-3.29.66-.72,1.54-1.09,2.63-1.09s2,.37,2.69,1.1c.68.73,1.02,1.83,1.02,3.28v11.74c0,1.7.14,3.13.43,4.28.29,1.15.8,2.06,1.54,2.71.74.65,1.75.98,3.02.98s2.4-.37,3.49-1.1c1.09-.73,1.89-1.69,2.39-2.87.41-1.04.62-3.31.62-6.82v-8.92c0-1.45.34-2.54,1.02-3.28.68-.73,1.57-1.1,2.66-1.1s1.97.36,2.63,1.09c.66.73.99,1.82.99,3.29v21.24c0,1.4-.32,2.44-.95,3.14-.64.7-1.46,1.05-2.46,1.05s-1.83-.36-2.48-1.09c-.65-.73-.98-1.74-.98-3.05Z" style="fill:#549b35; stroke:#549b35; stroke-miterlimit:10; stroke-width:2px;"/><path d="M271.97,68.81c-1.77,1.38-3.49,2.41-5.14,3.1-1.66.69-3.51,1.03-5.57,1.03-1.88,0-3.53-.37-4.96-1.11-1.42-.74-2.52-1.75-3.29-3.02-.77-1.27-1.15-2.65-1.15-4.14,0-2,.64-3.71,1.91-5.13,1.27-1.41,3.02-2.36,5.24-2.85.47-.11,1.62-.35,3.46-.73,1.84-.38,3.42-.72,4.74-1.03,1.32-.31,2.74-.69,4.28-1.14-.09-1.93-.48-3.35-1.17-4.26-.69-.9-2.12-1.36-4.28-1.36-1.86,0-3.26.26-4.2.78-.94.52-1.75,1.3-2.42,2.34-.67,1.04-1.15,1.72-1.42,2.05-.28.33-.87.5-1.79.5-.82,0-1.54-.26-2.13-.79-.6-.53-.9-1.2-.9-2.03,0-1.29.46-2.54,1.37-3.76.91-1.22,2.34-2.22,4.27-3.01,1.93-.79,4.34-1.18,7.22-1.18,3.22,0,5.76.38,7.6,1.14,1.84.76,3.15,1.97,3.91,3.61.76,1.65,1.14,3.83,1.14,6.55,0,1.72,0,3.18-.01,4.38,0,1.2-.02,2.53-.04,4,0,1.38.23,2.82.69,4.31.46,1.49.68,2.46.68,2.89,0,.75-.35,1.44-1.06,2.05-.71.62-1.51.93-2.4.93-.75,0-1.5-.35-2.23-1.06-.73-.71-1.51-1.73-2.34-3.07ZM271.49,58.2c-1.07.39-2.64.81-4.69,1.25-2.05.44-3.47.76-4.26.97-.79.21-1.54.61-2.26,1.21-.72.6-1.07,1.44-1.07,2.51s.42,2.05,1.26,2.83c.84.78,1.94,1.17,3.3,1.17,1.45,0,2.79-.32,4.01-.95,1.23-.64,2.13-1.45,2.7-2.46.66-1.11.99-2.94.99-5.48v-1.05Z" style="fill:#549b35; stroke:#549b35; stroke-miterlimit:10; stroke-width:2px;"/><path d="M284.97,68.49v-31.8c0-1.47.33-2.58.98-3.33.65-.75,1.54-1.13,2.65-1.13s2,.37,2.69,1.11c.68.74,1.02,1.86,1.02,3.34v31.8c0,1.49-.34,2.6-1.03,3.34-.69.74-1.58,1.11-2.67,1.11s-1.95-.39-2.62-1.15c-.67-.77-1.01-1.87-1.01-3.3Z" style="fill:#549b35; stroke:#549b35; stroke-miterlimit:10; stroke-width:2px;"/></g><g id="b"><path d="M133.6,27.31c-.55,1.09-.96,2.23-1.75,3.21-.91,1.12-2.09,1.79-3.29,2.46-2.32,1.31-4.91,1.69-7.5,2.05-.58.08-1.17.11-1.76.13-.45.02-.51.28-.56.65-.11.77-.05,1.58-.7,2.2-.44.42-.86.79-1.53.73-.22-.02-.46.02-.63.3.27.28.69.04.98.28.61.5.63,1.18.51,1.83-.16.88-.45,1.73-.86,2.53-.33.64-.82.9-1.55.91-1.26,0-2.49-.24-3.74-.31-1.22-.46-2.58-.57-3.7-1.26-.75-.45-1.47-.69-2.33-.76-1.48-.12-2.3-1.02-2.4-2.41-.08-1.11.78-2.42,2-2.66,1.12-.22,1.44-1.12,1.98-1.84.24-.33-.08-.46-.33-.5-.43-.06-.87-.06-1.3-.1-3.33-.31-6.51-1.16-9.23-3.14-2.15-1.57-3.92-3.53-4.5-6.28-.08-.38-.25-.45-.57-.42-.99.09-1.89-.01-2.4-1.06-.12-.26-.48-.25-.76-.29-1.36-.18-2.03-1.22-1.62-2.53.04-.14.17-.28.02-.41-.05-.04-.19,0-.28.02-1.43.42-2.45-.54-2.09-2.06.12-.53,0-.82-.24-1.27-.48-.85-.78-1.24.49-2.71-1.1.27-1.68-.25-2.05-1.08-.28-.62-.26-1.19.33-1.65.38-.3.55-.5.12-1.05-.67-.85-.64-1.96-.18-2.93,1.21-2.57,3-4.62,5.56-5.96,1.45-.76,2.94-1.27,4.59-1.18,2.58.14,4.79,1.18,6.58,3.03.6.61.95.58,1.63.08,2.59-1.93,5.5-3.17,8.72-3.65,2.38-.35,4.72-.22,7.08.23,3.61.69,6.86,2.2,9.86,4.26.45.31.89.4,1.39.08,3.48-2.28,8.53-1.02,11,1.52,1.07,1.1,2.24,2.11,2.92,3.52.25.52.36,1.06.3,1.64-.02.24-.06.49-.28.59-.72.34-.65.67-.08,1.13.24.2.39.53.54.82.59,1.1.23,1.88-.99,2.15-.37.08-.88.04-.26.63.46.44.59,1.14.48,1.8-.09.53-.45.77-.99.75-.47-.02-.9-.06-.38.62.34.44.51,1.08.24,1.58-.31.58-.92.68-1.55.43-.13-.05-.27-.07-.33.07-.03.07.02.19.07.27.65,1.07.22,2.27-1.07,2.72-.58.2-1.04.48-1.43.94-.38.44-.92.68-1.45.51-.65-.2-.68.1-.67.57,0,.1-.05.2-.07.3Z" style="fill:#712914; stroke-width:0px;"/><path d="M109.08,1.19c3.14-.63,6.22-.24,9.24.66,2.64.78,5.11,1.95,7.36,3.54,1.42,1,2.35,2.47,3.26,3.93,2.87,4.61,4.14,9.65,3.97,15.06-.14,4.37-2.33,7.17-6.78,8.61-2.45.79-4.98,1.14-7.56.98-.57-.04-1.1-.22-1.63-.39-1.7-.56-3.33-.25-4.93.4-.31.13-.52.36-.38.73.16.42.46.27.76.16,1.36-.51,2.74-.87,4.19-.35.96.35,1.24.81,1.14,1.9-.07.82-.53,1.3-1.44,1.41-1.26.14-2.51.03-3.69-.47-.51-.22-.77.02-.93.35-.2.4.21.53.49.61.66.19,1.34.34,2.02.46.34.06.56.19.67.52.06.19.24.35.03.55-.16.15-.32.11-.5.05-.14-.05-.3-.07-.44-.15-.38-.22-.65-.11-.78.28-.13.42.18.54.5.71.88.45,1.62.22,2.34-.34.05-.01.13-.02.14,0,.26.68-.34,2.26-1.01,2.65-.21.04-.42.03-.63.03-.78-.11-1.53-.33-2.28-.54-.93-.46-1.92-.79-2.71-1.51-1.06-.96-1.59-2.08-1.21-3.52.09-.45.24-.89.5-1.27.18-.23.27-.5.33-.78.29-.64.76-1.14,1.24-1.63.12-.09.25-.18.39-.28-.18-.08-.34,0-.5-.02-.15,0-.31,0-.46,0-2.2-.27-4.33-.82-6.43-1.51-.08-.02-.15-.05-.22-.08-.19-.11-.37-.24-.59-.3-.85-.25-1.62-.65-2.38-1.11-1.05-.82-2.09-1.65-2.99-2.64-.1-.11-.18-.23-.26-.36-.41-.84-.89-1.66-1.19-2.55-.04-.12-.06-.24-.08-.36-.35-1.85-.32-3.69-.11-5.56.2-1.75.74-3.38,1.33-5.02.12-.59.49-1.06.71-1.6.17-.33.28-.69.47-1.01,2.13-3.89,5.25-6.83,8.9-9.26.65-.44,1.38-.75,2.15-.97Z" style="fill:#d1cad1; stroke-width:0px;"/><path d="M95.85,24.72c0,.1,0,.2.01.31-.07,1.23-.07,1.25-1.46,1.27-.49,0-.73.08-.51.65.19.48.31.67.71.14.32-.43.79-.55,1.16-.07.36.47.94.18,1.32.47.05.1.11.2.16.3.33.62.95,1.06,1.02,1.83.03.3.37.31.61.37.45.09.9.17,1.29.42l2.46,1.08c.19.04.17.41.47.3.05,0,.1,0,.15,0,.2.36-.07.45-.31.54-.21.07-.46.04-.73.34.85-.25,1.51-.15,2.07.42.13.14.36.2.49.05.37-.45.84-.3,1.19-.12.75.38,1.61.31,2.33.67.66.32,1.16.28,1.58-.35h.46c.17.17.34.34.15.6-.47.47-.87.99-1.23,1.55-.23.21-.15.53-.31.77-.21.39-.37.8-.47,1.23-.21.36-.5.58-.93.56-.29,0-.51.05-.51.41,0,1.19.63,2.09,1.42,2.87.36.36.93.2,1.4.33.79.21,1.54.53,2.33.74.8.02,1.52.39,2.3.47.2.17.41.16.61,0,.43-.06.4-.46.53-.74.26-.56.42-1.14.37-1.76.44-.22.48.09.47.39-.03.97-.42,1.84-.86,2.67-.18.34-.54.23-.84.22-2.07-.07-4.06-.52-6-1.19-2.77-.96-3.47-3.13-1.82-5.65.36-.55.8-1.06,1.2-1.59.19-.24.47-.44.31-.8-.15-.34-.47-.34-.79-.36-2.38-.14-4.74-.43-7.02-1.18-2.73-.9-5.16-2.26-6.85-4.66-1.7-2.4-2.27-5.02-1.5-7.92,1.09-4.07,3.06-7.73,5.27-11.27.41-.65.4-1.19.08-1.77-.55-1.02-1.22-1.96-2.05-2.77-.74-.73-1.76-.62-2.3.27-.18.3-.36.21-.57.19-1.08-.1-1.19-.03-1.45,1.04-.07.29-.22.27-.44.28-1.24.05-1.49.45-.89,1.48.16.28.13.35-.1.51-4.37,3.17-4.36,8.59.09,11.61.93.63,1.4,1.19,1.05,2.3-.1.33-.02.71-.04,1.07-.02.27.23.62-.25.75-.43.12-.93.16-1.11-.24-.39-.91-1.11-1.04-1.95-1.17-.92-.14-1.17-.68-.95-1.65.2-.91-.01-1.13-.87-.89-.46.12-.82-.05-1.08-.4-.3-.41-.18-.83.08-1.21.63-.92.64-.91-.36-1.45-.9-.49-.99-1.14-.22-1.82.24-.21.5-.39.4-.75-.12-.4-.46-.35-.76-.32-.78.06-1.17-.43-1.42-1.06-.25-.6.29-.88.63-1.18.79-.71.82-.74-.06-1.37-.57-.41-.62-.96-.48-1.57.34-1.48,1.19-2.64,2.25-3.67,1.97-1.92,4.13-3.43,7.03-3.5,2.81-.07,5.02,1.17,6.94,3.09.84.84.83.84,1.79.13,2.56-1.9,5.32-3.34,8.53-3.77-2.39,1.27-4.55,2.82-6.52,4.7-1.75,1.67-3.13,3.58-4.39,5.6-.06.05-.13.09-.2.07q-.79-.22-1.16.66c.27.18.66-.12.89.18.01.6-.58.96-.62,1.54-.21.18-.47.33-.67.07-.36-.47-.53-.17-.73.12-.4.57-.66,1.22-.99,1.82.84.18,1.42,1.7.86,2.36-.31.37-.72.32-1.12.13-.19-.09-.22-.34-.42-.42-.32,1.13-.88,2.18-1.14,3.32-.2.88-.51,1.8.39,2.55.36.3.43.75.1,1.09.77-.16,1.62-.31,2.49-.27Z" style="fill:#b6aeb5; stroke-width:0px;"/><path d="M132.03,4.42c2.5.07,4.5,1.21,6.24,2.91,1.01.98,1.94,2.04,2.63,3.28.33.59.28,1.06-.38,1.39-.47.23-.63.5-.16.96.36.35.69.75.88,1.24.3.75.14,1.1-.63,1.3-.05.01-.1,0-.15.01-1.1.29-1.16.43-.57,1.36.14.22.27.44.36.68.29.79.08,1.09-.76,1.14-.96.06-1.08.29-.55,1.12.07.11.15.21.2.33.15.35.43.72.16,1.07-.25.33-.68.17-1.02.11-.36-.06-.71-.21-.95.2-.24.41.15.58.34.83.22.29.31.65.11.93-.27.38-.51.96-1.08.85-.76-.15-1.07.23-1.35.8-.23.47-.57.7-1.11.36-.25-.16-.4-.3-.32-.6.01-.05.01-.1.02-.15.09-.9-.14-1.81,0-2.68.14-.89,1.15-1.29,1.55-2.11.68-1.39,1.33-2.78,1.19-4.38-.16-1.73-.95-3.16-2.2-4.34-.35-.33-.62-.57-.34-1.15.32-.66-.03-1.15-.76-1.26-.31-.05-.44-.12-.45-.45-.02-.53-.38-.81-.87-.75-.39.05-.55-.08-.67-.4-.19-.54-.57-.59-1.05-.38-.12.05-.23.1-.35.16-1.17.54-1.15.52-1.96-.44-.33-.39-.32-.6.14-.85,1.21-.66,2.46-1.12,3.87-1.08Z" style="fill:#d1cad1; stroke-width:0px;"/><path d="M90.87,7.27q2.01.4,1.51-1.3c.23-.12.44-.02.66.05,1.3.43,1.43.34,1.43-.98.6.1.88.59,1.2,1,1.39,1.82,1.38,1.83.22,3.8-1.75,2.98-3.32,6.05-4.33,9.37-.13.44-.28.39-.57.21-3.16-1.86-4.2-5.19-2.67-8.29.55-1.11,1.48-1.8,2.6-2.27.32-.13.76-.13.81-.59.05-.45-.39-.55-.66-.76-.05-.04-.09-.11-.21-.26Z" style="fill:#f6e7c0; stroke-width:0px;"/><path d="M130.43,7.74c0,1.14.16,1.24,1.4.78-.03.43-.56.85-.03,1.24.43.32.82-.13,1.29-.07-.02.38-.42.68-.24,1.07.17.36.52.56.8.82,2.69,2.49,2.78,5.63.19,8.66-.26-.36-.2-.78-.26-1.15-.4-2.78-1.23-5.43-2.45-7.95-.34-.71-.87-1.32-1.25-2.01-.52-.94-.5-.95.55-1.37Z" style="fill:#fbe4c2; stroke-width:0px;"/><path d="M105.53,41.27c-.94.09-1.62-.41-1.81-1.29-.19-.87.17-1.51,1.01-1.81.27-.1.55-.18.45.28-.21.98-.09,1.91.35,2.82Z" style="fill:#bcadae; stroke-width:0px;"/><path d="M125.87,25.08c-.01,1.45-.15,2.85-1.04,4.08-1.07,1.48-2.61,2.12-4.3,2.41-1.49.26-3,.41-4.49-.01-.29-.08-.46,0-.67.2-.34.3-.63.68-1.1.79-1.03.24-1.99-.7-1.84-1.85.05-.41.02-.7-.32-1-.97-.84-1.48-1.94-1.56-3.23-.2-2.91.04-5.73,1.63-8.29,1.11-1.79,2.65-3.11,4.7-3.57,2.44-.54,4.39.71,6.03,2.33,2.24,2.22,2.91,5.08,2.97,8.13Z" style="fill:#761c1b; stroke-width:0px;"/><path d="M95.85,24.72c-1,.42-2.1.23-3.14.54.19-.31.72-.22.68-.72-.03-.38-.29-.57-.56-.78-.26-.2-.36-.46-.37-.8-.03-1.31.41-2.5.91-3.67.14-.33.31-.64.32-1.01,0-.3.04-.56.38-.7.1.2.18.42.3.6.21.31.55.24.84.19.28-.05.32-.29.33-.54,0-.33-.03-.66-.12-.98-.23-.8-.32-.85-1.06-.38-.11-.65.47-.98.6-1.49.11-.41.37-.79.64-1.12.23-.28.56-1.01.88-.01.11.34.4,0,.59.1-.29,1.16-.88,2.23-1.05,3.42-.27,1.83-.68,3.65-.36,5.53.1.6.04,1.22.19,1.82Z" style="fill:#b5aeb5; stroke-width:0px;"/><path d="M103.01,20.46c-.12.71.44.99.89,1.29.68.46,1.43.54,2.18.14.6-.32,1-.86,1.45-1.35.22-.24.4-.69.84-.3.35.31.62.74.31,1.15-.89,1.2-2,2.17-3.59,2.18-1.46,0-2.58-.71-3.34-1.95-.26-.42-.4-.88-.25-1.39.13-.46.37-.82.91-.73.52.09.7.46.6.97Z" style="fill:#752714; stroke-width:0px;"/><path d="M131.12,20.59c-.05,1.08-.36,2.09-1.4,2.53-1.08.46-2.16.21-3.08-.57-.24-.2-.42-.45-.53-.74-.2-.49-.23-1.02.28-1.29.52-.28.84.12,1.09.55.18.3.34.62.73.75.72.24,1.14.04,1.31-.7.07-.32.07-.66.14-.99.1-.47.3-.96.85-.92.54.04.6.55.62,1,0,.13,0,.26,0,.38Z" style="fill:#732711; stroke-width:0px;"/><path d="M112.17,42.4c-.91.12-1.67-.41-2.5-.6-.4-.09-.82.14-1.17-.15-.74-.61-1.26-1.38-1.56-2.28-.08-.23-.05-.5-.11-.75-.13-.54-.03-.96.68-.76.43.12.61-.31.95-.37-.62,2.34,1.21,3.73,2.93,4.49.27.12.62.09.77.43Z" style="fill:#b5aeb5; stroke-width:0px;"/><path d="M109.85,33.34c-.31.91-.4.94-1.31.66-.99-.3-2-.56-2.99-.85-.22-.07-.36-.26-.56.12-.19.35-.59.33-.88-.03-.47-.58-1.06-.65-1.72-.4-.19.07-.4.21-.5-.09-.09-.27.17-.31.32-.44.3-.26.92.14,1.03-.51,2.18.63,4.35,1.28,6.61,1.54Z" style="fill:#b5aeb5; stroke-width:0px;"/><path d="M100.56,25.36c-.79-.08-1.59.09-2.37-.16-.19-.06-.44-.09-.42-.35.02-.26.23-.4.47-.42,1.52-.13,3.05-.26,4.57.03.22.04.49.11.51.39.02.31-.27.32-.49.38-.75.22-1.53.05-2.28.14Z" style="fill:#dd787f; stroke-width:0px;"/><path d="M97.08,27.48c-.57,0-1.16.23-1.58-.5-.2-.35-.63-.03-.85.3-.14.2-.22.54-.48.52-.28-.02-.3-.37-.38-.61q-.39-1.1.82-1.1c.18,0,.36-.02.54,0,.48.05.75-.05.49-.6-.12-.25.03-.38.23-.48.41.82.81,1.64,1.22,2.46Z" style="fill:#b5aeb5; stroke-width:0px;"/><path d="M129.66,24.69c-.23-.07-.86.25-.94-.23-.09-.53.61-.48.97-.64.6-.27,1.25-.19,1.89-.16.25,0,.6.08.63.34.03.31-.33.46-.59.5-.6.09-1.2.28-1.96.19Z" style="fill:#d87b86; stroke-width:0px;"/><path d="M100.17,30.41c-.63-.11-1.25-.21-1.88-.32-.09-.02-.24-.11-.23-.16.13-.83-.58-1.32-.81-1.99-.02-.05,0-.1,0-.15.97.87,1.95,1.75,2.92,2.62Z" style="fill:#b5aeb5; stroke-width:0px;"/><path d="M97.7,12.41c-.05,0-.11.01-.15,0-.35-.12-.89.46-.99-.04-.09-.42.34-.91.7-1.28.15-.15.24-.12.35.05.13.2.3.35.56.36-.19.29-.16.69-.47.92Z" style="fill:#b5aeb5; stroke-width:0px;"/><path d="M110.47,33.94c-.05-.2-.1-.4-.15-.6.21.02.44-.07.66.07-.08.26-.28.41-.51.53Z" style="fill:#b5aeb5; stroke-width:0px;"/><path d="M108.93,36.25c.07-.27-.19-.67.31-.77.01.3-.06.57-.31.77Z" style="fill:#b5aeb5; stroke-width:0px;"/><path d="M115.08,42.87c-.2.36-.41.36-.61,0,.2,0,.41,0,.61,0Z" style="fill:#b5aeb5; stroke-width:0px;"/><path d="M103.09,31.79c-.34.19-.35-.13-.47-.3.22,0,.37.1.47.3Z" style="fill:#b5aeb5; stroke-width:0px;"/><path d="M97.08,29.81c.03.24-.07.43-.32.51-.3.1-.33-.17-.42-.32-.21-.36-.49-.64-.85-.85-.14-.08-.26-.19-.19-.36.06-.15.21-.2.37-.22.73-.13,1.43.48,1.41,1.25Z" style="fill:#b5aeb5; stroke-width:0px;"/><path d="M100.93,32.08c-.33-.15-.66-.15-1.02-.03-.37.12-.54-.21-.73-.44-.11-.13-.1-.3.01-.42.22-.24.52-.22.78-.1.36.17.71.26,1.1.24.25,0,.47.11.45.4-.03.34-.29.37-.59.34Z" style="fill:#b5aeb5; stroke-width:0px;"/><path d="M97.64,30.59c-.04.13-.11.23-.26.22-.14-.01-.23-.1-.23-.24,0-.13.12-.15.21-.15.13,0,.25.01.28.18Z" style="fill:#b5aeb5; stroke-width:0px;"/><path d="M125.12,24.15c0,.08,0,.15,0,.23-.01.38.03.87-.49.88-.54,0-.49-.49-.49-.87,0-1.6-.6-3.05-1.1-4.52-.03-.1-.09-.19-.12-.28-.1-.32-.25-.69.19-.85.46-.17.63.18.76.53.4,1.02.76,2.06,1,3.14.13.58.23,1.15.25,1.74Z" style="fill:#f2eaec; stroke-width:0px;"/><path d="M113.9,32.11c-.63,0-1.21-.74-1.11-1.37.05-.31.19-.31.41-.2.34.16.68.31,1.02.48.23.11.6.06.62.43.01.23-.64.66-.94.65Z" style="fill:#d44f47; stroke-width:0px;"/><path d="M124.54,25.61c.37,0,.51.26.51.55,0,.34-.26.51-.56.5-.28,0-.46-.21-.46-.5,0-.32.21-.5.51-.55Z" style="fill:#df9d98; stroke-width:0px;"/></g></svg>